<svg xmlns="http://www.w3.org/2000/svg" width="521" height="367" viewBox="0 0 521.4 367.3">
    <style>
        .a{fill:#ADFFE9;}
        .b{fill:#007A5A;}
        .c{fill:#70FFD9;}
        .d{fill:#70FFD9;}
        .e{fill:#33FFC9;}
        .f{fill:#70FFD9;stroke-linejoin:round;stroke-width:3;stroke:#231F20;}
        .g{fill:#aaa;}
        .h{fill:#007A5A;}
        .i{fill:#0b8;}
        .j{fill:#0b8;}
        .k{fill:#70FFD9;}
    </style>
    <g opacity="0.3">
        <path d="M463.7 162.6c0 89.8-72.8 162.6-162.6 162.6 -89.8 0-162.6-72.8-162.6-162.6C138.5 72.8 211.3 0 301.1 0 390.9 0 463.7 72.8 463.7 162.6z"
              class="a"/>
        <path d="M221.6 283.5c0 45.8-37.2 83-83 83 -45.8 0-83-37.2-83-83 0-45.8 37.2-83 83-83C184.4 200.4 221.6 237.6 221.6 283.5z"
              class="a"/>
    </g>
    <rect x="92.2" y="235.6" width="14" height="84.1" class="b"/>
    <rect x="39.9" y="305.7" width="128" height="14" class="b"/>
    <path d="M160.2 315h-8.9v-3.6h8.9V315zM142.4 315h-8.9v-3.6h8.9V315zM124.6 315h-8.9v-3.6h8.9V315zM106.8 315h-8.9v-3.6h8.9V315zM89 315h-8.9v-3.6h8.9V315zM71.3 315h-8.9v-3.6h8.9V315zM53.5 315H44.6v-3.6h8.9V315z"
          class="c"/>
    <path d="M101.5 305.7h-3.6v-8.9h3.6V305.7zM101.5 287.9h-3.6v-8.9h3.6V287.9zM101.5 270.1h-3.6v-8.9h3.6V270.1zM101.5 252.4h-3.6v-8.9h3.6V252.4z"
          class="c"/>
    <rect x="215.5" y="101.1" width="14" height="85" class="b"/>
    <rect x="163.2" y="171.2" width="128" height="14.9" class="d"/>
    <path d="M283.5 180.4h-8.9v-3.6h8.9V180.4zM265.7 180.4h-8.9v-3.6h8.9V180.4zM247.9 180.4h-8.9v-3.6h8.9V180.4zM230.1 180.4h-8.9v-3.6h8.9V180.4zM212.3 180.4h-8.9v-3.6h8.9V180.4zM194.6 180.4h-8.9v-3.6h8.9V180.4zM176.8 180.4h-8.9v-3.6h8.9V180.4z"
          class="c"/>
    <path d="M224.8 171.2h-3.6v-8.9h3.6V171.2zM224.8 153.4h-3.6v-8.9h3.6V153.4zM224.8 135.6h-3.6v-8.9h3.6V135.6zM224.8 117.9h-3.6v-8.9h3.6V117.9z"
          class="c"/>
    <rect x="394" y="210.4" width="14.9" height="84.1" class="b"/>
    <rect x="341.7" y="280.5" width="128" height="14" class="b"/>
    <rect x="346.3" y="286.2" width="4.4" height="3.6" class="c"/>
    <path d="M452.9 289.7h-8.5v-3.6h8.5V289.7zM435.9 289.7h-8.5v-3.6h8.5V289.7zM418.9 289.7h-8.5v-3.6h8.5V289.7zM401.9 289.7h-8.5v-3.6h8.5V289.7zM384.8 289.7h-8.5v-3.6h8.5V289.7zM367.8 289.7h-8.5v-3.6h8.5V289.7z"
          class="c"/>
    <rect x="461.4" y="286.2" width="4.4" height="3.6" class="c"/>
    <path d="M403.2 280.5h-3.6v-8.9h3.6V280.5zM403.2 262.7h-3.6v-8.9h3.6V262.7zM403.2 244.9h-3.6v-8.9h3.6V244.9zM403.2 227.1h-3.6v-8.9h3.6V227.1z"
          class="c"/>
    <path d="M203.5 199.2c-10.2 0-19.7 2.7-27.6 8.1 -5.3-6-12.6-10.5-20.9-11.9 0.3-2.3 0.5-4.8 0.5-7.2 0-26.8-21.8-48.6-48.6-48.6 -26.8 0-48.6 21.7-48.6 48.6 0 4 0.5 7.8 1.4 11.5 -3.6-0.9-7.3-0.4-11.2-0.4C21.7 199.2 0 218.8 0 248.7h252.1C252.1 218.8 230.4 199.2 203.5 199.2z"
          class="e"/>
    <path d="M59.8 199.6c0 0 5.9 4.8 7.9 5.8" class="g"/>
    <path d="M66.8 207c-2-1.1-7.6-5.5-8.2-6l2.2-2.8c2.3 1.9 6.3 4.9 7.6 5.6L66.8 207z" class="c"/>
    <path d="M176 206.9c0 0-2.7 4.6-2.8 8.1" class="g"/>
    <path d="M174.9 215.1l-3.6-0.1c0.1-3.9 2.9-8.8 3-9l3.1 1.8C176.8 209 175 212.6 174.9 215.1z" class="c"/>
    <path d="M298.6 73.1c-10.2 0-19.7 2.7-27.6 8.1 -5.3-6-12.6-10.5-20.9-11.9 0.3-2.3 0.5-4.8 0.5-7.2 0-26.8-21.8-48.6-48.6-48.6 -26.8 0-48.6 21.7-48.6 48.6 0 4 0.5 7.8 1.4 11.5 -3.6-0.9-7.3-0.4-11.2-0.4 -26.8 0-48.6 19.6-48.6 49.5h252.1C347.2 92.7 325.5 73.1 298.6 73.1z"
          class="e"/>
    <path d="M154.9 73.4c0 0 5.9 4.8 7.9 5.8" class="g"/>
    <path d="M161.9 80.8c-2-1.1-7.6-5.5-8.2-6l2.2-2.8c2.3 1.9 6.3 4.9 7.6 5.6L161.9 80.8z" class="c"/>
    <path d="M271.1 80.7c0 0-2.7 4.6-2.8 8.1" class="g"/>
    <path d="M270 88.9l-3.6-0.1c0.1-3.9 2.9-8.8 3-9l3.1 1.8C271.9 82.8 270.1 86.4 270 88.9z" class="c"/>
    <path d="M472.8 183.1c-10.2 0-19.7 2.6-27.6 8 -5.3-6-12.6-10.6-20.9-11.9 0.3-2.3 0.5-4.8 0.5-7.3 0-26.8-21.8-48.7-48.6-48.7 -26.8 0-48.6 21.7-48.6 48.5 0 4 0.5 7.8 1.4 11.5 -3.6-0.9-7.3-0.2-11.2-0.2 -26.8 0-48.6 19.8-48.6 49.7h252.1C521.4 202.9 499.6 183.1 472.8 183.1z"
          class="e"/>
    <path d="M329.1 183.2c0 0 5.9 4.8 7.9 5.8" class="g"/>
    <path d="M336.1 190.6c-2-1.1-7.6-5.5-8.2-6l2.2-2.8c2.3 1.9 6.3 4.9 7.6 5.6L336.1 190.6z" class="c"/>
    <path d="M445.2 190.5c0 0-2.7 4.6-2.8 8.1" class="g"/>
    <path d="M444.2 198.7l-3.6-0.1c0.1-3.9 2.9-8.8 3-9l3.1 1.8C446.1 192.6 444.3 196.2 444.2 198.7z" class="c"/>
    <rect x="170.7" y="205.7" width="188.7" height="17.8" class="h"/>
    <rect x="168.8" y="275.8" width="188.7" height="18.7" class="h"/>
    <rect x="167.9" y="346.8" width="188.7" height="18.7" class="h"/>
    <rect x="155.8" y="151.6" width="218.6" height="53.2" class="i"/>
    <path d="M374.3 206.6H155.8c-1 0-1.8-0.8-1.8-1.8v-53.2c0-1 0.8-1.8 1.8-1.8h218.6c1 0 1.8 0.8 1.8 1.8v53.2C376.1 205.8 375.3 206.6 374.3 206.6zM157.5 203h215v-49.7H157.5V203z"
          class="c"/>
    <rect x="154.8" y="223.5" width="218.6" height="52.3" class="i"/>
    <path d="M373.4 277.6H154.8c-1 0-1.8-0.8-1.8-1.8v-52.3c0-1 0.8-1.8 1.8-1.8h218.6c1 0 1.8 0.8 1.8 1.8v52.3C375.2 276.8 374.4 277.6 373.4 277.6zM156.6 274h215v-48.8H156.6V274z"
          class="c"/>
    <rect x="153.9" y="294.5" width="218.6" height="52.3" class="i"/>
    <path d="M372.5 348.6H153.9c-1 0-1.8-0.8-1.8-1.8v-52.3c0-1 0.8-1.8 1.8-1.8H372.5c1 0 1.8 0.8 1.8 1.8v52.3C374.3 347.8 373.5 348.6 372.5 348.6zM155.7 345h215v-48.8H155.7V345z"
          class="c"/>
    <rect x="143.6" y="363.7" width="241.9" height="3.6" class="c"/>
    <rect x="168.9" y="162.8" width="3.6" height="27.1" class="c"/>
    <rect x="180.1" y="162.8" width="3.6" height="27.1" class="c"/>
    <rect x="191.3" y="162.8" width="3.6" height="27.1" class="c"/>
    <rect x="203.5" y="162.8" width="3.6" height="27.1" class="c"/>
    <rect x="214.7" y="162.8" width="3.6" height="27.1" class="c"/>
    <rect x="227.7" y="162.8" width="130.8" height="14" fill="#E6E7E8"/>
    <circle cx="335.5" cy="180.6" r="13.4" class="d"/>
    <rect x="331.4" y="178.7" width="9.3" height="3.6" class="c"/>
    <circle cx="183.5" cy="249.1" r="13.4" class="d"/>
    <rect x="179.1" y="246.9" width="10.3" height="3.6" class="c"/>
    <circle cx="227.1" cy="249.1" r="13.4" class="d"/>
    <rect x="223" y="246.9" width="9.3" height="3.6" class="c"/>
    <circle cx="268.8" cy="249.1" r="13.4" class="d"/>
    <rect x="265.1" y="246.9" width="9.3" height="3.6" class="c"/>
    <rect x="227.7" y="184.4" width="70.1" height="3.6" class="c"/>
    <rect x="303.4" y="184.4" width="9.3" height="3.6" class="c"/>
    <rect x="231.4" y="165.6" width="3.7" height="8.4" class="j"/>
    <rect x="240.8" y="165.6" width="3.7" height="8.4" class="j"/>
    <rect x="249.2" y="165.6" width="3.7" height="8.4" class="j"/>
    <rect x="258.5" y="165.6" width="3.7" height="8.4" class="j"/>
    <rect x="266.9" y="165.6" width="3.7" height="8.4" class="j"/>
    <rect x="276.3" y="165.6" width="3.7" height="8.4" class="h"/>
    <rect x="284.7" y="165.6" width="3.7" height="8.4" class="h"/>
    <rect x="294" y="165.6" width="3.7" height="8.4" class="h"/>
    <rect x="302.4" y="165.6" width="3.7" height="8.4" class="h"/>
    <rect x="312.7" y="165.6" width="3.7" height="8.4" class="h"/>
    <rect x="295.9" y="235.6" width="10.3" height="15.9" class="k"/>
    <rect x="313.6" y="235.6" width="10.3" height="15.9" class="j"/>
    <rect x="331.4" y="235.6" width="10.3" height="15.9" class="k"/>
    <rect x="349.1" y="235.6" width="10.3" height="15.9" class="j"/>
    <rect x="299.7" y="243.1" width="3.6" height="18.7" class="c"/>
    <rect x="317.5" y="243.1" width="3.6" height="18.7" class="c"/>
    <rect x="335.2" y="243.1" width="3.6" height="18.7" class="c"/>
    <rect x="353" y="243.1" width="3.6" height="18.7" class="c"/>
    <rect x="295.9" y="241.3" width="10.3" height="3.6" class="c"/>
    <rect x="313.6" y="241.3" width="10.3" height="3.6" class="c"/>
    <rect x="331.4" y="241.3" width="10.3" height="3.6" class="c"/>
    <rect x="349.1" y="241.3" width="10.3" height="3.6" class="c"/>
    <rect x="284.7" y="305.7" width="72.9" height="28" class="j"/>
    <circle cx="181.7" cy="320.2" r="13.4" class="d"/>
    <rect x="177.2" y="317.9" width="10.3" height="3.6" class="c"/>
    <rect x="295" y="305.7" width="3.6" height="28" class="c"/>
    <rect x="291.2" y="303.9" width="10.3" height="3.6" class="c"/>
    <rect x="310" y="305.7" width="3.6" height="28" class="c"/>
    <rect x="306.2" y="331.9" width="11.2" height="3.6" class="c"/>
    <rect x="330.5" y="305.7" width="3.6" height="28" class="c"/>
    <rect x="326.7" y="303.9" width="11.2" height="3.6" class="c"/>
    <rect x="345.5" y="305.7" width="3.6" height="28" class="c"/>
    <rect x="341.7" y="331.9" width="11.2" height="3.6" class="c"/>
    <rect x="207.1" y="309.5" width="68.2" height="3.6" class="c"/>
    <rect x="207.1" y="317.9" width="68.2" height="3.6" class="c"/>
    <rect x="207.1" y="327.3" width="68.2" height="3.6" class="c"/>
    <rect x="394" y="363.7" width="21.5" height="3.6" class="c"/>
    <rect x="125.9" y="363.7" width="10.3" height="3.6" class="c"/>
</svg>
